<svg xmlns="http://www.w3.org/2000/svg" viewBox="0 0 520 380" role="img" aria-labelledby="title desc">
  <title id="title">Coffee cup button</title>
  <desc id="desc">A flat illustrated teal coffee cup on a saucer with dark coffee and a soft shadow.</desc>
  <ellipse cx="248" cy="308" rx="154" ry="43" fill="#7c4661"/>
  <ellipse cx="269" cy="276" rx="154" ry="43" fill="#29c7b0" stroke="#14211d" stroke-width="4"/>
  <ellipse cx="269" cy="286" rx="126" ry="28" fill="#1fa694" opacity=".72" stroke="#14211d" stroke-width="3"/>
  <path
    d="M147 147c0-32 56-57 126-57s126 25 126 57v68c0 41-56 76-126 76s-126-35-126-76Z"
    fill="#2fbaa9"
    stroke="#14211d"
    stroke-width="4"
  />
  <ellipse cx="273" cy="146" rx="126" ry="57" fill="#6de0d2" stroke="#14211d" stroke-width="4"/>
  <ellipse cx="273" cy="151" rx="112" ry="47" fill="#4b1c16"/>
  <path
    d="M228 131c18-14 55-18 86-9 23 7 39 19 42 32-9 12-28 19-52 20-41 2-82-16-76-43Z"
    fill="#6d331d"
    opacity=".82"
  />
  <path
    d="M374 157h26c19 0 34 14 34 32v11c0 20-17 36-37 36h-27"
    fill="none"
    stroke="#14211d"
    stroke-width="4"
    stroke-linecap="round"
    stroke-linejoin="round"
  />
  <path
    d="M361 151h22c17 0 30 13 30 30v25c0 15-11 27-25 27h-27"
    fill="#2fbaa9"
    stroke="#14211d"
    stroke-width="4"
    stroke-linecap="round"
    stroke-linejoin="round"
  />
  <path
    d="M291 156c-9 13-6 45 4 61 9 14 24 17 34 7 8-8 8-25 7-39-2-18-8-32-17-38-9-7-21-4-28 9Z"
    fill="#2bb6a6"
    opacity=".88"
    stroke="#14211d"
    stroke-width="3"
    stroke-linejoin="round"
  />
  <path
    d="M290 170c5 8 5 25 3 41"
    fill="none"
    stroke="#1b776d"
    stroke-width="3"
    stroke-linecap="round"
  />
  <path
    d="M166 152c21 3 39 4 61 4"
    fill="none"
    stroke="#1b776d"
    stroke-width="3"
    stroke-linecap="round"
  />
  <path
    d="M173 276c23 9 62 15 96 15"
    fill="none"
    stroke="#1b776d"
    stroke-width="3"
    stroke-linecap="round"
  />
</svg>
