<svg xmlns="http://www.w3.org/2000/svg" viewBox="0 0 512 512" role="img" aria-labelledby="title desc">
  <title id="title">Coffee counter icon</title>
  <desc id="desc">A flat illustrated teal coffee cup on a pink background.</desc>
  <rect width="512" height="512" rx="132" fill="#f37d9b"/>
  <ellipse cx="246" cy="389" rx="134" ry="34" fill="#7c4661"/>
  <ellipse cx="263" cy="357" rx="140" ry="40" fill="#29c7b0" stroke="#14211d" stroke-width="4"/>
  <ellipse cx="263" cy="366" rx="116" ry="24" fill="#1fa694" opacity=".72" stroke="#14211d" stroke-width="3"/>
  <path
    d="M147 218c0-32 52-57 116-57s116 25 116 57v57c0 38-52 70-116 70s-116-32-116-70Z"
    fill="#2fbaa9"
    stroke="#14211d"
    stroke-width="4"
  />
  <ellipse cx="263" cy="217" rx="116" ry="57" fill="#6de0d2" stroke="#14211d" stroke-width="4"/>
  <ellipse cx="263" cy="222" rx="103" ry="45" fill="#4b1c16"/>
  <path
    d="M222 200c15-11 47-15 74-8 21 6 36 17 39 28-8 10-25 16-45 17-35 2-71-14-68-37Z"
    fill="#6d331d"
    opacity=".82"
  />
  <path
    d="M354 222h20c17 0 30 13 30 30v8c0 18-15 33-33 33h-21"
    fill="#2fbaa9"
    stroke="#14211d"
    stroke-width="4"
    stroke-linecap="round"
    stroke-linejoin="round"
  />
  <path
    d="M279 225c-8 12-5 37 4 50 8 12 20 15 28 6 7-7 7-21 6-33-2-15-7-27-14-32-8-6-17-4-24 9Z"
    fill="#2bb6a6"
    opacity=".88"
    stroke="#14211d"
    stroke-width="3"
    stroke-linejoin="round"
  />
  <path
    d="M278 237c4 7 4 21 2 34"
    fill="none"
    stroke="#1b776d"
    stroke-width="3"
    stroke-linecap="round"
  />
</svg>
